<?xml version="1.0" encoding="UTF-8"?>
<svg width="103px" height="80px" viewBox="0 0 103 80" version="1.1" xmlns="http://www.w3.org/2000/svg" xmlns:xlink="http://www.w3.org/1999/xlink">
    <!-- Generator: Sketch 51.2 (57519) - http://www.bohemiancoding.com/sketch -->
    <title>Group</title>
    <desc>Created with Sketch.</desc>
    <defs>
        <linearGradient x1="0%" y1="50%" x2="100%" y2="50%" id="linearGradient-1">
            <stop stop-color="#E052A0" offset="0%"></stop>
            <stop stop-color="#F15C41" offset="100%"></stop>
        </linearGradient>
    </defs>
    <g id="Page-1" stroke="none" stroke-width="1" fill="none" fill-rule="evenodd">
        <g id="Desktop-HD-Copy" transform="translate(-470.000000, -207.000000)">
            <g id="Group" transform="translate(470.000000, 207.000000)">
                <g id="indie-hackers-logo__type--dark" fill="#0E2439" fill-rule="nonzero">
                    <polygon id="Shape" points="0 28.3885714 0 0.0685714286 6.41690962 0.0685714286 6.41690962 28.3885714"></polygon>
                    <path d="M13.1558147,28.3885714 L13.1558147,0.0685714286 L19.7567217,0.0685714286 L27.1856171,14.1485714 L29.9915776,20.4114286 L30.175575,20.4114286 C30.0375769,18.9028571 29.8535795,17.2342857 29.6695821,15.3828571 C29.4855847,13.5314286 29.393586,11.7714286 29.393586,10.08 L29.393586,0.0685714286 L35.5114998,0.0685714286 L35.5114998,28.3885714 L28.9105928,28.3885714 L21.4586978,14.2628571 L18.6527373,8.09142857 L18.4687399,8.09142857 C18.6067379,9.64571429 18.7907353,11.3371429 18.9747328,13.12 C19.1587302,14.9257143 19.2507289,16.6628571 19.2507289,18.3314286 L19.2507289,28.3657143 L13.1558147,28.3657143 L13.1558147,28.3885714 Z" id="Shape"></path>
                    <path d="M42.2044056,28.3885714 L42.2044056,0.0685714286 L50.2542922,0.0685714286 C52.4392614,0.0685714286 54.4172336,0.342857143 56.1652089,0.891428571 C57.9131843,1.44 59.4081633,2.28571429 60.6731454,3.42857143 C61.915128,4.57142857 62.8811144,6.03428571 63.548105,7.79428571 C64.2150956,9.55428571 64.5600907,11.6571429 64.5600907,14.1028571 C64.5600907,16.5257143 64.2150956,18.6514286 63.548105,20.4342857 C62.8811144,22.24 61.9381276,23.7028571 60.7191448,24.8914286 C59.500162,26.08 58.0281827,26.9485714 56.3262067,27.52 C54.6242306,28.0914286 52.7152575,28.3885714 50.622287,28.3885714 L42.2044056,28.3885714 Z M48.6443149,23.2 L49.8632977,23.2 C51.0822805,23.2 52.186265,23.04 53.1752511,22.72 C54.1642371,22.4 55.0152251,21.8971429 55.7052154,21.1885714 C56.3952057,20.48 56.9471979,19.5428571 57.3381924,18.3771429 C57.7291869,17.2114286 57.936184,15.7942857 57.936184,14.08 C57.936184,12.4114286 57.7291869,10.9942857 57.3381924,9.85142857 C56.9471979,8.70857143 56.3952057,7.79428571 55.7052154,7.10857143 C55.0152251,6.42285714 54.1642371,5.94285714 53.1752511,5.64571429 C52.186265,5.34857143 51.0822805,5.21142857 49.8632977,5.21142857 L48.6443149,5.21142857 L48.6443149,23.2 Z" id="Shape"></path>
                    <polygon id="Shape" points="69.9650146 28.3885714 69.9650146 0.0685714286 76.3819242 0.0685714286 76.3819242 28.3885714"></polygon>
                    <polygon id="Shape" points="83.1208293 28.3885714 83.1208293 0.0685714286 100.945578 0.0685714286 100.945578 5.46285714 89.5377389 5.46285714 89.5377389 11.1542857 99.2436022 11.1542857 99.2436022 16.5028571 89.5377389 16.5028571 89.5377389 23.0171429 101.382572 23.0171429 101.382572 28.4114286 83.1208293 28.4114286"></polygon>
                </g>
                <path d="M0,79.4461421 L0,39.1252865 L13.563878,39.1252865 C18.0398895,39.1252865 21.4466812,40.0391429 23.7843552,41.8668831 C26.1220292,43.6946233 27.2908487,46.4177308 27.2908487,50.0362872 C27.2908487,51.8824895 26.8015754,53.5440466 25.8230142,55.0210084 C24.844453,56.4979702 23.4128756,57.6425984 21.5282392,58.4549274 C23.6665767,59.0457121 25.3201391,60.1580323 26.4889761,61.7919213 C27.6578132,63.4258103 28.2422229,65.3873708 28.2422229,67.6766616 C28.2422229,71.4613762 27.0507519,74.3691011 24.6677741,76.3999236 C22.2847963,78.4307461 18.8734743,79.4461421 14.4337058,79.4461421 L0,79.4461421 Z M6.87707641,61.2519099 L6.87707641,73.8521772 L14.5152522,73.8521772 C16.6717112,73.8521772 18.3569858,73.3075557 19.5711265,72.2182964 C20.7852673,71.1290371 21.3923286,69.6151739 21.3923286,67.6766616 C21.3923286,63.4857825 19.2902657,61.34422 15.0860767,61.2519099 L6.87707641,61.2519099 Z M6.87707641,56.1010313 L13.6182422,56.1010313 C15.7565797,56.1010313 17.4282634,55.6071796 18.6333434,54.6194614 C19.8384234,53.6317432 20.4409544,52.233266 20.4409544,50.4239878 C20.4409544,48.4300893 19.8837265,46.9900732 18.769254,46.1038961 C17.6547815,45.217719 15.9196735,44.7746371 13.563878,44.7746371 L6.87707641,44.7746371 L6.87707641,56.1010313 Z M65.3186349,66.3197097 C64.9199618,70.621361 63.3615358,73.9767832 60.6433102,76.3860772 C57.9250846,78.7953711 54.3098987,80 49.7976442,80 C46.6445025,80 43.8674237,79.238453 41.4663244,77.7153361 C39.0652251,76.1922193 37.2123291,74.0275796 35.9075808,71.2213522 C34.6028325,68.4151248 33.9232863,65.1566267 33.8689218,61.4457601 L33.8689218,57.6795264 C33.8689218,53.8763497 34.5303468,50.5255429 35.8532166,47.6270053 C37.1760863,44.7284678 39.0742854,42.4945966 41.5478707,40.9253247 C44.021456,39.3560528 46.8800804,38.5714286 50.1238297,38.5714286 C54.4911121,38.5714286 58.0066312,39.7806729 60.6704923,42.1991979 C63.3343534,44.6177228 64.8837188,48.0331458 65.3186349,52.4455691 L58.4687406,52.4455691 C58.1425535,49.5470316 57.3135071,47.4562389 55.9815766,46.1731283 C54.649646,44.8900178 52.6970832,44.2484721 50.1238297,44.2484721 C47.1337815,44.2484721 44.8369153,45.3607923 43.2331622,47.585466 C41.6294091,49.8101397 40.8094233,53.0732533 40.7731803,57.3749045 L40.7731803,60.947288 C40.7731803,65.3043253 41.5388024,68.6274395 43.0700695,70.9167303 C44.6013366,73.2060211 46.8438391,74.3506494 49.7976442,74.3506494 C52.4977483,74.3506494 54.5273263,73.7321809 55.8864391,72.4952254 C57.2455519,71.2582699 58.1063105,69.1997852 58.4687406,66.3197097 L65.3186349,66.3197097 Z M102.857143,79.4461421 L95.9800664,79.4461421 L78.3388704,50.8393812 L78.3388704,79.4461421 L71.461794,79.4461421 L71.461794,39.1252865 L78.3388704,39.1252865 L96.0344307,67.8428189 L96.0344307,39.1252865 L102.857143,39.1252865 L102.857143,79.4461421 Z" id="BCN" fill="url(#linearGradient-1)"></path>
            </g>
        </g>
    </g>
</svg>