<?xml version="1.0" encoding="UTF-8"?>
<svg width="95px" height="34px" viewBox="0 0 95 34" version="1.1" xmlns="http://www.w3.org/2000/svg" xmlns:xlink="http://www.w3.org/1999/xlink">
    <!-- Generator: Sketch 51.2 (57519) - http://www.bohemiancoding.com/sketch -->
    <title>logo--script</title>
    <desc>Created with Sketch.</desc>
    <defs></defs>
    <g id="Page-1" stroke="none" stroke-width="1" fill="none" fill-rule="evenodd">
        <g id="Desktop-HD-Copy" transform="translate(-654.000000, -1118.000000)" fill="#F64060" fill-rule="nonzero">
            <g id="logo--script" transform="translate(654.000000, 1118.000000)">
                <path d="M55.9751528,18.3245698 C55.8445114,18.5224723 55.7611049,18.6581887 55.6701469,18.7889164 C54.8205009,20.0085523 53.8670782,21.1221129 52.567398,21.8926925 C50.8253032,22.9248984 48.9370892,23.3506691 46.9689802,22.9231217 C45.9591349,22.7035394 45.0196048,22.137098 44.0685174,21.6851545 C43.8493045,21.5814709 43.7294875,21.57884 43.5346334,21.6941066 C42.718858,22.1763403 41.9254131,22.7168821 41.0616529,23.0917933 C39.5285604,23.7569809 37.9142773,24.1296883 36.2457706,23.6872948 C35.199958,23.4099852 34.2952701,22.8194552 33.4779265,22.1091142 C32.8982908,21.6054912 32.8610621,21.6059354 32.273159,22.0905609 C31.2160619,22.962381 29.9956802,23.5245172 28.7186713,23.9888809 C27.1345939,24.565436 25.5009294,24.9187187 23.8300533,25.0845714 C21.7914075,25.2868646 19.9010286,24.9398689 18.5214363,23.2602941 C17.4155874,21.9145089 17.1198545,20.3533613 17.7963632,18.7304545 C18.5373403,16.953466 19.3941286,15.224296 20.1987047,13.4743687 C20.6182264,12.56264 21.0404754,11.6517826 21.447383,10.7346212 C21.5218063,10.5661375 21.5518927,10.3695675 21.5603816,10.1835897 C21.5763027,9.8416509 21.6457315,9.46714972 21.2512335,9.26140557 C20.8481783,9.0519029 20.3726261,9.08967591 20.0771831,9.46434793 C19.7068053,9.93310224 19.3791281,10.4465486 19.1034585,10.9772671 C18.1902646,12.7339767 17.306748,14.5068309 16.4159868,16.2750553 C15.7477625,17.6009545 15.0923568,18.9327477 14.418047,20.255213 C13.7791761,21.5095638 12.5783633,21.9874752 11.2769615,21.4997063 C10.8386209,21.334759 10.5636673,21.0106902 10.4898065,20.5177277 C10.3853139,19.8183376 10.6141408,19.1920164 10.8617013,18.5659344 C11.4023356,17.1964023 11.9499758,15.8294499 12.4903884,14.4594737 C12.7797801,13.7249416 13.0693593,12.9897945 13.3410572,12.2484971 C13.5313939,11.7301817 13.5885836,11.1804828 13.3665581,10.6713587 C13.1947334,10.2788167 12.8565728,9.99513471 12.3821797,10.0372642 C11.8641145,10.0833059 11.4565422,10.3545506 11.261245,10.8366305 C10.5740824,12.5369626 9.91496073,14.2484676 9.23887816,15.9531903 C8.43024509,17.9936332 7.63504434,20.0396113 6.79267703,22.0662502 C6.48086969,22.8151842 6.01055064,23.4971313 5.21923641,23.8176808 C4.81865297,23.9804584 4.36512433,24.0811181 3.93377267,24.087183 C2.58794867,24.1048479 1.42564304,23.654237 0.631823024,22.5094466 C0.000605797309,21.5990334 -0.153780766,20.5858079 0.151293356,19.5139326 C0.433423421,18.5216523 0.715604624,17.5294232 1.01155908,16.5410551 C1.29198453,15.6044691 1.5900868,14.6728886 1.88118312,13.7391214 C2.1524889,12.8697272 2.40613493,11.9937556 2.70031659,11.1322372 C3.27927046,9.43624454 3.74612916,7.68939242 4.66361865,6.13367753 C5.29134143,5.06919966 6.30820971,4.49370371 7.47440186,4.13669668 C8.69367558,3.76398934 9.73232878,4.23318784 10.7733002,4.75232325 C11.1680539,4.94867113 11.5575915,5.15865215 11.9627603,5.32971553 C12.5280262,5.56757785 13.0434151,5.41699834 13.499995,5.044291 C13.8736627,4.73942473 14.2507395,4.43479764 14.5951731,4.09767653 C15.4556604,3.25575361 17.314521,3.09974135 18.2229079,4.07953319 C18.4321318,4.30516327 18.6790275,4.49549755 18.9100704,4.69996039 C19.3855885,5.12091332 19.5822153,5.16386281 20.1323954,4.8526925 C21.4407861,4.11228346 22.7961901,4.21480532 24.1285476,4.68943657 C24.9015032,4.9650719 25.3641856,5.62320377 25.6596287,6.40268421 C26.094202,7.55031053 25.9120133,8.65845543 25.4765365,9.73714729 C24.6754719,11.7216055 23.802967,13.676696 23.0213179,15.6685858 C22.5580048,16.8502437 22.1667286,18.065284 21.8337841,19.2899768 C21.6981823,19.7890725 21.6972959,20.3808667 21.8237951,20.8823201 C22.0151887,21.6413508 22.7088629,21.8900445 23.4104464,21.9791211 C24.4788451,22.1148545 25.5272486,21.9158415 26.5508331,21.6321254 C27.4250255,21.3907779 28.2857344,21.092899 29.1394885,20.7836763 C29.5514246,20.6344294 29.93532,20.4053141 30.3285224,20.2051906 C30.6648932,20.0347252 30.6908715,19.7851432 30.513609,19.4713077 C30.1514986,18.8308409 29.7706546,18.1984206 29.4516708,17.5359152 C28.7771565,16.1355804 28.2221354,14.6905365 28.3701978,13.0936147 C28.4995437,11.6958939 29.0031708,10.4819469 30.2899641,9.7462873 C32.1896842,8.66108638 33.7312827,8.96072491 35.1276143,10.582077 C36.3351944,11.9846327 36.7334255,13.6729546 36.2150023,15.4818221 C35.9249629,16.4932538 35.5099925,17.470893 35.1141309,18.4490106 C35.0045926,18.7198282 35.0681746,18.8933004 35.2391299,19.0527979 C36.038865,19.8014927 36.9507292,20.3830877 37.9629951,20.7946102 C38.3446744,20.9504516 38.7481727,21.0665211 39.1526938,21.1479612 C40.022744,21.3227147 40.8299111,21.1151938 41.5547285,20.6224534 C41.899878,20.3880592 41.9074294,20.1690235 41.6679657,19.8419137 C40.0007545,17.5629764 39.3408146,15.0264105 39.8417996,12.2390666 C40.0295113,11.1955168 40.511149,10.2098309 41.6287938,9.90933822 C42.3196553,9.72339456 43.1004521,9.73125326 43.818809,9.8229267 C44.9862626,9.97172945 46.0435642,10.4387241 46.7607961,11.4460726 C47.6212834,12.6547918 47.8410077,13.9776329 47.4706811,15.4226769 C47.2047789,16.4605718 46.6615537,17.3434966 46.0634059,18.2010857 C45.8265332,18.541077 45.8173965,18.8544511 46.1403179,19.0818238 C46.6376039,19.4320826 47.1429698,19.8161167 47.7049287,20.0189224 C48.9260093,20.4592829 50.1930291,20.4208778 51.4232123,20.0245772 C52.769275,19.5900595 53.7150781,18.6951929 54.2544679,17.3673119 C54.8987084,15.7793251 54.9065666,14.1159973 54.8739233,12.4466559 C54.8479962,11.1422998 54.8025172,9.83806323 54.7639419,8.53328002 C54.7502368,8.06737876 54.6753703,8.04033458 54.2322057,8.13069254 C53.0647522,8.36706853 51.8914006,8.57631494 50.7197537,8.79102826 C50.3502283,8.85825431 49.977447,8.90385185 49.6081603,8.97061662 C48.8032262,9.11576337 48.139127,8.78429712 48.093631,7.84065529 C48.0472315,6.88966729 47.909874,5.94322366 47.8123191,4.99437118 C47.8066257,4.94096619 47.8022619,4.88725369 47.7994493,4.83333618 C47.744987,3.71673464 48.0145882,3.10939388 49.3521448,3.15804948 C50.7334418,3.20892601 52.1147387,3.25452355 53.494331,3.32716526 C54.1729705,3.36252941 54.411633,3.19120977 54.4562938,2.5162842 C54.4907269,1.99231398 54.5053013,1.46793375 54.5379276,0.944185628 C54.5869351,0.15862324 54.7656465,-0.0279866935 55.5619041,0.00322600894 C56.0379165,0.0220014659 56.5162473,0.105149918 56.9818105,0.210097719 C57.6373866,0.35784126 57.9809849,0.820479455 58.0264639,1.4740157 C58.0632835,2.00953478 58.0478397,2.5492224 58.0393678,3.08646698 C58.0323789,3.46660592 58.1501675,3.67064166 58.5753825,3.7136595 C59.8027872,3.83888616 61.0253679,4.01000079 62.2501645,4.15574549 C62.8284877,4.2247312 63.1530285,4.45934753 63.231236,4.89029467 C63.366906,5.6387845 63.2054964,6.15137668 62.6418158,6.3558737 C61.8533653,6.64172533 61.0382207,6.8595138 60.2230419,7.06091859 C59.652577,7.20213599 59.0616226,7.26257964 58.4818165,7.36932127 C58.0927391,7.44068168 57.8812993,7.64555454 57.8847937,8.08420662 C57.8993511,10.2502349 57.8503776,12.418245 57.9131243,14.5822061 C57.9457506,15.7178052 58.1158366,16.8549589 58.5985311,17.9157124 C58.9884608,18.7748562 59.6543327,19.1133269 60.5803964,18.9576905 C61.9392607,18.7292245 63.1849047,18.250903 64.2699233,17.3891625 C64.8719746,16.9110461 65.2680068,16.325966 65.298025,15.5179209 C65.3522827,14.0392554 65.4251719,12.5610512 65.5118002,11.0845554 C65.536875,10.6585797 65.5850473,10.2168867 65.7267345,9.81952695 C65.8057432,9.59909045 66.0942826,9.30758397 66.2952391,9.30167286 C67.4052132,9.26805129 68.5227558,9.25694661 69.6274967,9.35297649 C70.3224834,9.41318096 70.7998936,10.0648209 70.7631252,10.8021889 C70.7133165,11.8345486 70.5801012,12.8632523 70.4820861,13.8934936 C70.3610076,15.164604 70.2493897,16.4366028 70.1145721,17.7060048 C69.9780328,18.9909191 71.0034923,19.6280888 72.0181446,19.640526 C72.8693418,19.6507765 73.3718439,19.3324138 73.7335111,18.4296372 C74.108014,17.4952037 74.330585,16.4822174 74.4920968,15.4831547 C74.7205487,14.064762 74.8286892,12.6268934 74.9972581,11.198609 C75.0658686,10.6152886 75.4292063,10.1668473 75.8810474,10.0695361 C76.4034423,9.95715669 77.088815,10.1695295 77.2598045,10.648073 C77.4032815,11.0480295 77.3706042,11.5366698 77.3206591,11.9752706 C77.1360839,13.6019188 76.8698578,15.2204349 76.7178236,16.850312 C76.6241723,17.8515103 77.1842221,18.564243 78.1547931,18.8601401 C78.6384422,19.0072174 79.140075,19.1235261 79.6409577,19.181578 C80.5206048,19.2823915 81.1435206,18.6388323 81.3272776,17.6367799 C81.4828063,16.7942419 81.5034661,15.9267611 81.5790486,15.0698554 C81.6674497,14.0522735 81.6802683,13.0216051 81.8537806,12.0186985 C82.1089778,10.5339169 83.0659291,9.18705544 84.8389796,8.7549295 C85.903236,8.49526783 86.976203,8.46429431 88.0387889,8.58735128 C89.6589359,8.77413206 91.3536254,9.87790342 91.8716395,11.7430631 C92.2650124,13.1610458 92.1086826,14.530817 91.6458468,15.8949163 C91.1097298,17.4756936 90.1297493,18.7075789 88.761254,19.6457196 C88.6349082,19.7321482 88.5610986,19.8962242 88.464004,20.0245431 C88.6357776,20.1007041 88.809324,20.2453554 88.9803305,20.2423145 C90.6159383,20.217235 92.1584743,19.8423067 93.5708463,18.9836413 C93.8895232,18.7902831 94.23665,18.643838 94.5732424,18.4834351 C94.8824928,18.3365799 95.0647157,18.5105135 94.978684,18.7778288 C94.8351558,19.225843 94.6624958,19.6985437 94.3766326,20.0604881 C93.1662229,21.5939765 91.5151884,22.3291578 89.6055986,22.4579209 C88.7956019,22.5124363 87.9735024,22.4040034 87.1573861,22.3588159 C86.541391,22.3243059 85.926538,22.2706447 85.3105771,22.2287886 C84.9979515,22.2082705 84.8174333,22.3398354 84.7392087,22.6636821 C84.2488434,24.6920636 83.9893506,26.7546475 83.7350568,28.8227837 C83.5745507,30.1249018 83.3321722,31.4226464 83.0213194,32.6968661 C82.8529721,33.3881753 82.3143152,33.8647883 81.5685482,33.9852485 C81.1228096,34.057224 80.7929504,33.8638829 80.6433709,33.4475085 C80.5173149,33.0964126 80.3995605,32.7278567 80.3695423,32.35995 C80.2224855,30.5441122 80.2825901,28.732665 80.5232129,26.9255571 C80.6451778,26.0061918 80.7267775,25.0815817 80.8315428,24.1602347 C80.905557,23.5193407 81.0018675,22.8805993 81.0619891,22.2383898 C81.1091727,21.7196986 80.9913841,21.5972567 80.4958368,21.4984421 C79.4709058,21.293518 78.4454462,21.092079 77.4249301,20.8655947 C76.731631,20.7110859 76.1912013,20.9571998 75.7213084,21.4360167 C75.0969266,22.0725713 74.4070538,22.6257724 73.5883805,22.9834287 C72.5996724,23.4157084 71.551695,23.3249062 70.5346904,23.163427 C69.0675492,22.9292891 67.8957148,22.1561639 67.0626376,20.9155487 C66.8038948,20.5306433 66.6166775,20.0963647 66.4139482,19.6766761 C66.3005234,19.4416839 66.1984172,19.3502667 65.9234806,19.4907837 C64.9483923,19.9883418 63.9769349,20.4991743 62.9703454,20.9253721 C61.8492061,21.4002596 60.6594733,21.5671374 59.4680529,21.2341677 C58.3066336,20.9089884 57.4158724,20.1596444 56.676242,19.2230241 C56.477706,18.9720241 56.2826475,18.7193157 55.9751528,18.3245698 Z M89.4267339,13.6664114 C89.4139152,13.5053764 89.4139152,13.3432309 89.3872892,13.1848098 C89.2386131,12.267375 88.3195042,11.8567409 87.5790385,12.4099421 C87.2442019,12.6599854 86.93998,12.9883936 86.7115111,13.3397799 C85.9486298,14.5118195 85.6041792,15.8545465 85.2597285,17.1898249 C85.1730321,17.5252376 85.1127059,17.8798699 85.1196607,18.2241835 C85.1325987,18.8655558 85.5088574,19.0540962 86.044838,18.7075618 C87.1572667,17.9882858 87.9812413,16.9906069 88.6768417,15.8815736 C89.0995339,15.2078781 89.4457062,14.4971613 89.4267339,13.6664114 Z M45.7755824,14.3134215 C45.7853499,13.6759785 45.6368783,13.086149 45.1684855,12.6276793 C44.9088051,12.3736383 44.584128,12.2630186 44.2117899,12.3793444 C43.7602045,12.5196222 43.5161043,12.8554791 43.4821485,13.4128146 C43.4164358,14.4925315 43.8791011,15.4202338 44.3553011,16.3334659 C44.6004922,16.8037578 44.8334613,16.7888775 45.1502291,16.3542402 C45.5933255,15.7464723 45.7662071,15.0555902 45.7755824,14.3134215 Z M34.7929652,14.107199 C34.6752107,13.7167583 34.597293,13.3078497 34.4291161,12.940148 C34.2144205,12.4722479 33.6609846,12.261686 33.1715228,12.3900049 C32.6535087,12.5261996 32.4486657,12.7736461 32.5024121,13.4132417 C32.5496639,13.969928 32.677288,14.5250938 32.8250948,15.0658236 C32.933508,15.4632346 33.1005428,15.8527356 33.2980049,16.2147654 C33.5636854,16.702466 33.8412812,16.7072837 34.1025469,16.2350613 C34.4626629,15.5849761 34.7409576,14.9022089 34.7929652,14.107199 Z" id="Shape"></path>
            </g>
        </g>
    </g>
</svg>