<?xml version="1.0" encoding="UTF-8"?>
<svg width="32px" height="32px" viewBox="0 0 32 32" version="1.1" xmlns="http://www.w3.org/2000/svg" xmlns:xlink="http://www.w3.org/1999/xlink">
    <!-- Generator: Sketch 51.2 (57519) - http://www.bohemiancoding.com/sketch -->
    <title>iconfinder_twitter_834708</title>
    <desc>Created with Sketch.</desc>
    <defs></defs>
    <g id="Page-1" stroke="none" stroke-width="1" fill="none" fill-rule="evenodd">
        <g id="Desktop-HD-Copy" transform="translate(-771.000000, -1120.000000)" fill-rule="nonzero">
            <g id="iconfinder_twitter_834708" transform="translate(771.000000, 1120.000000)">
                <rect id="rect2990-1" fill="#55ACEE" x="0" y="0" width="32" height="32" rx="16"></rect>
                <path d="M20.3774194,8.25846816 C18.0889813,8.31555014 16.2532258,10.1594043 16.2532258,12.4262993 C16.2532258,12.7526298 16.2887884,13.071658 16.3612903,13.3773586 C12.8409245,13.2032617 9.71981484,11.5433548 7.63064516,9.02058584 C7.26603419,9.63611718 7.05645161,10.3531219 7.05645161,11.1179972 C7.05645161,12.5644121 7.80536065,13.8396706 8.94193548,14.5872205 C8.24792129,14.5653553 7.59380258,14.3771567 7.02258065,14.0648523 C7.02225806,14.082179 7.02258065,14.1010967 7.02258065,14.1188356 C7.02258065,16.1387028 8.48309032,17.8220163 10.4209677,18.2056917 C10.0655794,18.3005792 9.69124194,18.3517643 9.30483871,18.3517643 C9.03159097,18.3517643 8.76664323,18.3262346 8.50806452,18.2771403 C9.04743355,19.9335453 10.6096813,21.1397718 12.4629032,21.1731875 C11.0132665,22.2916225 9.18965548,22.9578131 7.20483871,22.9578131 C6.86328,22.9578131 6.52504839,22.9394346 6.19354839,22.9006542 C8.06856258,24.0842757 10.2937303,24.7741935 12.6854839,24.7741935 C20.4768077,24.7741935 24.7370968,18.4206356 24.7370968,12.9105615 C24.7370968,12.7298634 24.7337613,12.5481892 24.7258065,12.3691404 C25.5530929,11.7824876 26.2712606,11.0476436 26.8387097,10.2113947 C26.0797355,10.5435015 25.2634929,10.7684685 24.4064516,10.8687212 C25.2815135,10.353028 25.9529426,9.53618005 26.2693548,8.56172749 C25.4508697,9.03987822 24.5441981,9.38740896 23.5790323,9.57470891 C22.8066471,8.76445206 21.7053955,8.25846816 20.4870968,8.25846816 C20.450551,8.25846816 20.4137432,8.25755997 20.3774194,8.25846816 Z" id="rect2989" fill="#FFFFFF"></path>
            </g>
        </g>
    </g>
</svg>